<?xml version="1.0" encoding="utf-8"?><svg xmlns="http://www.w3.org/2000/svg" xmlns:xlink="http://www.w3.org/1999/xlink" width="1920" height="954" preserveAspectRatio="xMidYMid" viewBox="0 0 1920 954" style="z-index:1;display:block;background-color:rgb(177, 0, 0);animation-play-state:paused" ><g transform="" style="animation-play-state:paused" ><g transform="translate(960 477)" style="animation-play-state:paused" ><g transform="matrix(1,0,0,1,0,0)" style="animation-play-state:paused" ><path d="M0 0L1440 0 L1353.1573739317082 492.509006388963 Z" fill="#ff0000" style="animation-play-state:paused" ></path>
<path d="M0 0L1103.1039980913283 925.6141579486165 L720.0000000000001 1247.0765814495917 Z" fill="#ff0000" style="animation-play-state:paused" ></path>
<path d="M0 0L250.0533758403798 1418.1231643375795 L-250.05337584037963 1418.1231643375795 Z" fill="#ff0000" style="animation-play-state:paused" ></path>
<path d="M0 0L-719.9999999999997 1247.0765814495917 L-1103.103998091328 925.6141579486168 Z" fill="#ff0000" style="animation-play-state:paused" ></path>
<path d="M0 0L-1353.157373931708 492.5090063889632 L-1440 1.7634913907721887e-13 Z" fill="#ff0000" style="animation-play-state:paused" ></path>
<path d="M0 0L-1353.1573739317082 -492.50900638896286 L-1103.1039980913288 -925.614157948616 Z" fill="#ff0000" style="animation-play-state:paused" ></path>
<path d="M0 0L-720.0000000000007 -1247.0765814495915 L-250.0533758403797 -1418.1231643375795 Z" fill="#ff0000" style="animation-play-state:paused" ></path>
<path d="M0 0L250.05337584037915 -1418.1231643375797 L719.9999999999991 -1247.0765814495921 Z" fill="#ff0000" style="animation-play-state:paused" ></path>
<path d="M0 0L1103.103998091328 -925.614157948617 L1353.1573739317082 -492.5090063889628 Z" fill="#ff0000" style="animation-play-state:paused" ></path>
<circle cx="0" cy="0" r="162.18" fill="#ff0000" style="animation-play-state:paused" ></circle></g></g></g></svg>